<svg xmlns="http://www.w3.org/2000/svg" xmlns:xlink="http://www.w3.org/1999/xlink" width="100" zoomAndPan="magnify" viewBox="0 0 75 74.999997" height="100" preserveAspectRatio="xMidYMid meet" version="1.0"><defs><g/><clipPath id="fa0633e220"><path d="M 40 31 L 62 31 L 62 49 L 40 49 Z M 40 31 " clip-rule="nonzero"/></clipPath><clipPath id="674289d983"><path d="M 49.9375 25.445312 L 72.277344 36.097656 L 60.652344 60.46875 L 38.316406 49.816406 Z M 49.9375 25.445312 " clip-rule="nonzero"/></clipPath><clipPath id="85f58ae418"><path d="M 49.9375 25.445312 L 72.277344 36.097656 L 60.652344 60.46875 L 38.316406 49.816406 Z M 49.9375 25.445312 " clip-rule="nonzero"/></clipPath><clipPath id="0bf2d21937"><path d="M 49.9375 25.445312 L 72.277344 36.097656 L 60.652344 60.46875 L 38.316406 49.816406 Z M 49.9375 25.445312 " clip-rule="nonzero"/></clipPath><clipPath id="5a59021485"><path d="M 39 35 L 66 35 L 66 51 L 39 51 Z M 39 35 " clip-rule="nonzero"/></clipPath><clipPath id="46751cda63"><path d="M 49.9375 25.445312 L 72.277344 36.097656 L 60.652344 60.46875 L 38.316406 49.816406 Z M 49.9375 25.445312 " clip-rule="nonzero"/></clipPath><clipPath id="cc47443162"><path d="M 49.9375 25.445312 L 72.277344 36.097656 L 60.652344 60.46875 L 38.316406 49.816406 Z M 49.9375 25.445312 " clip-rule="nonzero"/></clipPath><clipPath id="c0ffe96824"><path d="M 49.9375 25.445312 L 72.277344 36.097656 L 60.652344 60.46875 L 38.316406 49.816406 Z M 49.9375 25.445312 " clip-rule="nonzero"/></clipPath><clipPath id="15af98a98b"><path d="M 41 28 L 57 28 L 57 47 L 41 47 Z M 41 28 " clip-rule="nonzero"/></clipPath><clipPath id="a5541029bb"><path d="M 49.9375 25.445312 L 72.277344 36.097656 L 60.652344 60.46875 L 38.316406 49.816406 Z M 49.9375 25.445312 " clip-rule="nonzero"/></clipPath><clipPath id="cb42a06435"><path d="M 49.9375 25.445312 L 72.277344 36.097656 L 60.652344 60.46875 L 38.316406 49.816406 Z M 49.9375 25.445312 " clip-rule="nonzero"/></clipPath><clipPath id="9a6a88bf29"><path d="M 49.9375 25.445312 L 72.277344 36.097656 L 60.652344 60.46875 L 38.316406 49.816406 Z M 49.9375 25.445312 " clip-rule="nonzero"/></clipPath><clipPath id="b9d7125fa3"><path d="M 14 31 L 36 31 L 36 49 L 14 49 Z M 14 31 " clip-rule="nonzero"/></clipPath><clipPath id="d31215fe19"><path d="M 3.316406 36.070312 L 25.703125 25.511719 L 37.21875 49.933594 L 14.835938 60.492188 Z M 3.316406 36.070312 " clip-rule="nonzero"/></clipPath><clipPath id="7f032bef11"><path d="M 25.796875 25.46875 L 3.414062 36.023438 L 14.929688 60.445312 L 37.316406 49.886719 Z M 25.796875 25.46875 " clip-rule="nonzero"/></clipPath><clipPath id="629d6d3a23"><path d="M 25.796875 25.46875 L 3.414062 36.023438 L 14.929688 60.445312 L 37.316406 49.886719 Z M 25.796875 25.46875 " clip-rule="nonzero"/></clipPath><clipPath id="a8e8704d66"><path d="M 10 35 L 36 35 L 36 51 L 10 51 Z M 10 35 " clip-rule="nonzero"/></clipPath><clipPath id="c227d36697"><path d="M 3.316406 36.070312 L 25.703125 25.511719 L 37.21875 49.933594 L 14.835938 60.492188 Z M 3.316406 36.070312 " clip-rule="nonzero"/></clipPath><clipPath id="d5ac01ba49"><path d="M 25.796875 25.46875 L 3.414062 36.023438 L 14.929688 60.445312 L 37.316406 49.886719 Z M 25.796875 25.46875 " clip-rule="nonzero"/></clipPath><clipPath id="db30032cf7"><path d="M 25.796875 25.46875 L 3.414062 36.023438 L 14.929688 60.445312 L 37.316406 49.886719 Z M 25.796875 25.46875 " clip-rule="nonzero"/></clipPath><clipPath id="03d402974d"><path d="M 18 28 L 35 28 L 35 48 L 18 48 Z M 18 28 " clip-rule="nonzero"/></clipPath><clipPath id="4ed6142597"><path d="M 3.316406 36.070312 L 25.703125 25.511719 L 37.21875 49.933594 L 14.835938 60.492188 Z M 3.316406 36.070312 " clip-rule="nonzero"/></clipPath><clipPath id="fa14504704"><path d="M 25.796875 25.46875 L 3.414062 36.023438 L 14.929688 60.445312 L 37.316406 49.886719 Z M 25.796875 25.46875 " clip-rule="nonzero"/></clipPath><clipPath id="9845ddaa60"><path d="M 25.796875 25.46875 L 3.414062 36.023438 L 14.929688 60.445312 L 37.316406 49.886719 Z M 25.796875 25.46875 " clip-rule="nonzero"/></clipPath><clipPath id="b69048d3dc"><path d="M 26 17.210938 L 45 17.210938 L 45 24 L 26 24 Z M 26 17.210938 " clip-rule="nonzero"/></clipPath><clipPath id="01c41759e8"><path d="M 30 23 L 45.460938 23 L 45.460938 45.710938 L 30 45.710938 Z M 30 23 " clip-rule="nonzero"/></clipPath></defs><g clip-path="url(#fa0633e220)"><g clip-path="url(#674289d983)"><g clip-path="url(#85f58ae418)"><g clip-path="url(#0bf2d21937)"><path fill="#3871c1" d="M 61.097656 47.089844 L 59.707031 31.503906 C 59.707031 31.503906 58.132812 31.6875 56.273438 32.257812 L 56.414062 33.816406 C 56.917969 33.792969 57.445312 33.808594 58.003906 33.867188 L 59.199219 45.164062 C 59.199219 45.164062 46.324219 43.648438 40.394531 48.875 C 40.394531 48.875 47.8125 44.460938 61.097656 47.089844 " fill-opacity="1" fill-rule="nonzero"/></g></g></g></g><g clip-path="url(#5a59021485)"><g clip-path="url(#46751cda63)"><g clip-path="url(#cc47443162)"><g clip-path="url(#c0ffe96824)"><path fill="#2e3192" d="M 63.910156 35.105469 C 63.910156 35.105469 62.335938 35.289062 60.476562 35.859375 L 60.617188 37.417969 C 61.121094 37.398438 61.648438 37.410156 62.207031 37.472656 L 63.398438 48.765625 C 63.398438 48.765625 48.140625 45.304688 39.777344 50.511719 C 39.777344 50.511719 49.007812 47.324219 65.300781 50.695312 L 63.910156 35.105469 " fill-opacity="1" fill-rule="nonzero"/></g></g></g></g><g clip-path="url(#15af98a98b)"><g clip-path="url(#a5541029bb)"><g clip-path="url(#cb42a06435)"><g clip-path="url(#9a6a88bf29)"><path fill="#00adef" d="M 41.125 46.941406 C 41.125 46.941406 47.480469 41.925781 56.917969 43.699219 L 55.523438 28.109375 C 55.523438 28.109375 48.433594 28.933594 46.566406 32.542969 C 46.566406 32.542969 49.355469 29.984375 53.820312 30.476562 L 55.015625 41.773438 C 55.015625 41.773438 45.890625 41.421875 41.125 46.941406 " fill-opacity="1" fill-rule="nonzero"/></g></g></g></g><g clip-path="url(#b9d7125fa3)"><g clip-path="url(#d31215fe19)"><g clip-path="url(#7f032bef11)"><g clip-path="url(#629d6d3a23)"><path fill="#3871c1" d="M 14.542969 47.066406 L 16.003906 31.484375 C 16.003906 31.484375 17.574219 31.675781 19.429688 32.253906 L 19.285156 33.8125 C 18.785156 33.789062 18.253906 33.796875 17.695312 33.855469 L 16.453125 45.148438 C 16.453125 45.148438 29.332031 43.6875 35.238281 48.9375 C 35.238281 48.9375 27.84375 44.496094 14.542969 47.066406 " fill-opacity="1" fill-rule="nonzero"/></g></g></g></g><g clip-path="url(#a8e8704d66)"><g clip-path="url(#c227d36697)"><g clip-path="url(#d5ac01ba49)"><g clip-path="url(#db30032cf7)"><path fill="#2e3192" d="M 11.785156 35.066406 C 11.785156 35.066406 13.355469 35.257812 15.214844 35.835938 L 15.066406 37.394531 C 14.566406 37.371094 14.035156 37.382812 13.480469 37.441406 L 12.234375 48.730469 C 12.234375 48.730469 27.507812 45.335938 35.851562 50.582031 C 35.851562 50.582031 26.632812 47.351562 10.324219 50.648438 L 11.785156 35.066406 " fill-opacity="1" fill-rule="nonzero"/></g></g></g></g><g clip-path="url(#03d402974d)"><g clip-path="url(#4ed6142597)"><g clip-path="url(#fa14504704)"><g clip-path="url(#9845ddaa60)"><path fill="#00adef" d="M 34.515625 47.003906 C 34.515625 47.003906 28.183594 41.957031 18.738281 43.691406 L 20.199219 28.109375 C 20.199219 28.109375 27.285156 28.964844 29.140625 32.582031 C 29.140625 32.582031 26.363281 30.011719 21.894531 30.480469 L 20.648438 41.773438 C 20.648438 41.773438 29.773438 41.464844 34.515625 47.003906 " fill-opacity="1" fill-rule="nonzero"/></g></g></g></g><g clip-path="url(#b69048d3dc)"><path fill="#ffbd59" d="M 44.683594 20.398438 C 44.664062 20.710938 44.449219 20.972656 44.15625 21.078125 L 38.027344 23.296875 C 37.941406 23.328125 37.855469 23.34375 37.765625 23.34375 C 37.675781 23.34375 37.585938 23.328125 37.503906 23.296875 L 31.800781 21.234375 C 31.621094 21.167969 31.53125 20.960938 31.617188 20.785156 C 31.691406 20.628906 31.875 20.5625 32.039062 20.621094 L 37.726562 22.679688 C 37.75 22.691406 37.777344 22.691406 37.804688 22.679688 L 43.953125 20.453125 C 44.015625 20.429688 44.027344 20.382812 44.027344 20.347656 C 44.03125 20.320312 44.019531 20.265625 43.957031 20.242188 L 37.804688 17.890625 C 37.78125 17.882812 37.75 17.882812 37.726562 17.890625 L 33.472656 19.515625 C 33.621094 19.570312 33.777344 19.628906 33.9375 19.695312 C 36.191406 20.601562 37.738281 19.839844 38.296875 19.472656 C 38.351562 19.433594 38.414062 19.417969 38.472656 19.417969 C 38.566406 19.417969 38.65625 19.457031 38.71875 19.527344 C 38.851562 19.679688 38.820312 19.910156 38.652344 20.019531 C 37.976562 20.464844 36.210938 21.316406 33.691406 20.300781 C 30.160156 18.882812 28.773438 20.101562 28.332031 20.707031 L 28.738281 20.953125 L 27.746094 22.550781 C 27.496094 22.953125 26.96875 23.089844 26.554688 22.855469 C 26.117188 22.609375 25.96875 22.046875 26.234375 21.617188 L 27.207031 20.027344 L 27.777344 20.371094 C 28.253906 19.714844 29.558594 18.507812 32.441406 19.207031 L 37.492188 17.28125 C 37.667969 17.210938 37.863281 17.210938 38.039062 17.28125 L 44.191406 19.628906 C 44.507812 19.75 44.707031 20.054688 44.683594 20.398438 Z M 44.683594 20.398438 " fill-opacity="1" fill-rule="nonzero"/></g><g clip-path="url(#01c41759e8)"><path fill="#ffbd59" d="M 40.714844 23.078125 L 38.027344 24.050781 C 37.941406 24.082031 37.855469 24.097656 37.765625 24.097656 C 37.675781 24.097656 37.585938 24.082031 37.503906 24.050781 L 34.722656 23.042969 C 33.46875 27.375 30.039062 30.875 30.039062 30.875 C 31.03125 32.035156 32 33.519531 32.910156 35.171875 L 35.664062 41.113281 C 36.175781 42.429688 37 44.453125 37.378906 45.6875 L 37.292969 39.386719 C 37.335938 38.453125 37.339844 33.746094 37.316406 31.679688 C 37.015625 31.527344 36.808594 31.21875 36.808594 30.859375 C 36.808594 30.355469 37.210938 29.945312 37.714844 29.9375 C 38.214844 29.945312 38.617188 30.355469 38.617188 30.859375 C 38.617188 31.21875 38.410156 31.527344 38.109375 31.679688 C 38.085938 33.746094 38.089844 38.453125 38.132812 39.386719 L 38.046875 45.6875 C 38.425781 44.453125 39.25 42.429688 39.761719 41.113281 L 42.515625 35.171875 C 43.425781 33.519531 44.394531 32.035156 45.386719 30.875 C 45.386719 30.875 41.972656 27.394531 40.714844 23.078125 Z M 40.714844 23.078125 " fill-opacity="1" fill-rule="nonzero"/></g><g fill="#ffbd59" fill-opacity="1"><g transform="translate(15.018273, 60.314417)"><g><path d="M 4.375 -0.90625 L 4.375 0 L 0.578125 0 L 0.578125 -4.90625 L 4.28125 -4.90625 L 4.28125 -3.984375 L 1.703125 -3.984375 L 1.703125 -2.921875 L 3.984375 -2.921875 L 3.984375 -2.046875 L 1.703125 -2.046875 L 1.703125 -0.90625 Z M 4.375 -0.90625 "/></g></g></g><g fill="#ffbd59" fill-opacity="1"><g transform="translate(20.835308, 60.314417)"><g><path d="M 4.34375 -5.1875 L 4.34375 0 L 3.296875 0 L 3.296875 -0.4375 C 3.023438 -0.101562 2.632812 0.0625 2.125 0.0625 C 1.769531 0.0625 1.445312 -0.015625 1.15625 -0.171875 C 0.875 -0.335938 0.648438 -0.566406 0.484375 -0.859375 C 0.316406 -1.148438 0.234375 -1.492188 0.234375 -1.890625 C 0.234375 -2.273438 0.316406 -2.613281 0.484375 -2.90625 C 0.648438 -3.195312 0.875 -3.421875 1.15625 -3.578125 C 1.445312 -3.742188 1.769531 -3.828125 2.125 -3.828125 C 2.601562 -3.828125 2.976562 -3.671875 3.25 -3.359375 L 3.25 -5.1875 Z M 2.3125 -0.84375 C 2.582031 -0.84375 2.804688 -0.9375 2.984375 -1.125 C 3.171875 -1.3125 3.265625 -1.566406 3.265625 -1.890625 C 3.265625 -2.203125 3.171875 -2.453125 2.984375 -2.640625 C 2.804688 -2.828125 2.582031 -2.921875 2.3125 -2.921875 C 2.03125 -2.921875 1.796875 -2.828125 1.609375 -2.640625 C 1.429688 -2.453125 1.34375 -2.203125 1.34375 -1.890625 C 1.34375 -1.566406 1.429688 -1.3125 1.609375 -1.125 C 1.796875 -0.9375 2.03125 -0.84375 2.3125 -0.84375 Z M 2.3125 -0.84375 "/></g></g></g><g fill="#ffbd59" fill-opacity="1"><g transform="translate(26.799342, 60.314417)"><g><path d="M 4.296875 -3.765625 L 4.296875 0 L 3.265625 0 L 3.265625 -0.453125 C 3.117188 -0.285156 2.941406 -0.15625 2.734375 -0.0625 C 2.535156 0.0195312 2.320312 0.0625 2.09375 0.0625 C 1.59375 0.0625 1.195312 -0.078125 0.90625 -0.359375 C 0.625 -0.648438 0.484375 -1.078125 0.484375 -1.640625 L 0.484375 -3.765625 L 1.578125 -3.765625 L 1.578125 -1.796875 C 1.578125 -1.191406 1.832031 -0.890625 2.34375 -0.890625 C 2.601562 -0.890625 2.8125 -0.972656 2.96875 -1.140625 C 3.125 -1.316406 3.203125 -1.570312 3.203125 -1.90625 L 3.203125 -3.765625 Z M 4.296875 -3.765625 "/></g></g></g><g fill="#ffbd59" fill-opacity="1"><g transform="translate(32.728377, 60.314417)"><g><path d="M 3.8125 -1.046875 L 1.53125 -1.046875 L 1.09375 0 L -0.0625 0 L 2.125 -4.90625 L 3.234375 -4.90625 L 5.4375 0 L 4.234375 0 Z M 3.453125 -1.90625 L 2.671875 -3.78125 L 1.890625 -1.90625 Z M 3.453125 -1.90625 "/></g></g></g><g fill="#ffbd59" fill-opacity="1"><g transform="translate(39.210411, 60.314417)"><g><path d="M 1.703125 -3.6875 L 2.671875 -3.6875 L 2.671875 -2.84375 L 1.734375 -2.84375 L 1.734375 0 L 0.640625 0 L 0.640625 -2.84375 L 0.0625 -2.84375 L 0.0625 -3.6875 L 0.640625 -3.6875 L 0.640625 -3.84375 C 0.640625 -4.28125 0.765625 -4.625 1.015625 -4.875 C 1.273438 -5.125 1.632812 -5.25 2.09375 -5.25 C 2.257812 -5.25 2.414062 -5.226562 2.5625 -5.1875 C 2.707031 -5.15625 2.828125 -5.109375 2.921875 -5.046875 L 2.640625 -4.25 C 2.515625 -4.34375 2.367188 -4.390625 2.203125 -4.390625 C 1.867188 -4.390625 1.703125 -4.207031 1.703125 -3.84375 Z M 1.703125 -3.6875 "/></g></g></g><g fill="#ffbd59" fill-opacity="1"><g transform="translate(43.039425, 60.314417)"><g><path d="M 1.546875 -3.265625 C 1.679688 -3.453125 1.859375 -3.59375 2.078125 -3.6875 C 2.296875 -3.78125 2.550781 -3.828125 2.84375 -3.828125 L 2.84375 -2.8125 C 2.71875 -2.820312 2.632812 -2.828125 2.59375 -2.828125 C 2.28125 -2.828125 2.035156 -2.738281 1.859375 -2.5625 C 1.679688 -2.382812 1.59375 -2.125 1.59375 -1.78125 L 1.59375 0 L 0.5 0 L 0.5 -3.765625 L 1.546875 -3.765625 Z M 1.546875 -3.265625 "/></g></g></g><g fill="#ffbd59" fill-opacity="1"><g transform="translate(47.176448, 60.314417)"><g><path d="M 0.5 -3.765625 L 1.59375 -3.765625 L 1.59375 0 L 0.5 0 Z M 1.0625 -4.296875 C 0.851562 -4.296875 0.6875 -4.351562 0.5625 -4.46875 C 0.4375 -4.582031 0.375 -4.726562 0.375 -4.90625 C 0.375 -5.070312 0.4375 -5.210938 0.5625 -5.328125 C 0.6875 -5.453125 0.851562 -5.515625 1.0625 -5.515625 C 1.257812 -5.515625 1.421875 -5.457031 1.546875 -5.34375 C 1.671875 -5.226562 1.734375 -5.085938 1.734375 -4.921875 C 1.734375 -4.734375 1.671875 -4.582031 1.546875 -4.46875 C 1.421875 -4.351562 1.257812 -4.296875 1.0625 -4.296875 Z M 1.0625 -4.296875 "/></g></g></g><g fill="#ffbd59" fill-opacity="1"><g transform="translate(50.403463, 60.314417)"><g><path d="M 2.328125 0.0625 C 1.921875 0.0625 1.554688 -0.0195312 1.234375 -0.1875 C 0.921875 -0.351562 0.671875 -0.582031 0.484375 -0.875 C 0.304688 -1.175781 0.21875 -1.515625 0.21875 -1.890625 C 0.21875 -2.253906 0.304688 -2.582031 0.484375 -2.875 C 0.671875 -3.175781 0.921875 -3.410156 1.234375 -3.578125 C 1.554688 -3.742188 1.921875 -3.828125 2.328125 -3.828125 C 2.722656 -3.828125 3.066406 -3.742188 3.359375 -3.578125 C 3.660156 -3.410156 3.878906 -3.171875 4.015625 -2.859375 L 3.15625 -2.40625 C 2.96875 -2.75 2.6875 -2.921875 2.3125 -2.921875 C 2.03125 -2.921875 1.796875 -2.828125 1.609375 -2.640625 C 1.421875 -2.453125 1.328125 -2.203125 1.328125 -1.890625 C 1.328125 -1.566406 1.421875 -1.3125 1.609375 -1.125 C 1.796875 -0.9375 2.03125 -0.84375 2.3125 -0.84375 C 2.6875 -0.84375 2.96875 -1.015625 3.15625 -1.359375 L 4.015625 -0.890625 C 3.878906 -0.597656 3.660156 -0.363281 3.359375 -0.1875 C 3.066406 -0.0195312 2.722656 0.0625 2.328125 0.0625 Z M 2.328125 0.0625 "/></g></g></g><g fill="#ffbd59" fill-opacity="1"><g transform="translate(55.660493, 60.314417)"><g><path d="M 2.015625 -3.828125 C 2.597656 -3.828125 3.046875 -3.6875 3.359375 -3.40625 C 3.679688 -3.125 3.84375 -2.707031 3.84375 -2.15625 L 3.84375 0 L 2.8125 0 L 2.8125 -0.46875 C 2.601562 -0.113281 2.222656 0.0625 1.671875 0.0625 C 1.378906 0.0625 1.125 0.015625 0.90625 -0.078125 C 0.695312 -0.179688 0.535156 -0.316406 0.421875 -0.484375 C 0.316406 -0.660156 0.265625 -0.859375 0.265625 -1.078125 C 0.265625 -1.429688 0.394531 -1.707031 0.65625 -1.90625 C 0.914062 -2.113281 1.320312 -2.21875 1.875 -2.21875 L 2.75 -2.21875 C 2.75 -2.445312 2.675781 -2.625 2.53125 -2.75 C 2.382812 -2.882812 2.164062 -2.953125 1.875 -2.953125 C 1.675781 -2.953125 1.476562 -2.921875 1.28125 -2.859375 C 1.09375 -2.796875 0.929688 -2.710938 0.796875 -2.609375 L 0.40625 -3.359375 C 0.601562 -3.503906 0.84375 -3.617188 1.125 -3.703125 C 1.414062 -3.785156 1.710938 -3.828125 2.015625 -3.828125 Z M 1.9375 -0.671875 C 2.125 -0.671875 2.289062 -0.710938 2.4375 -0.796875 C 2.582031 -0.890625 2.6875 -1.019531 2.75 -1.1875 L 2.75 -1.578125 L 2 -1.578125 C 1.550781 -1.578125 1.328125 -1.429688 1.328125 -1.140625 C 1.328125 -0.992188 1.378906 -0.878906 1.484375 -0.796875 C 1.597656 -0.710938 1.75 -0.671875 1.9375 -0.671875 Z M 1.9375 -0.671875 "/></g></g></g></svg>