<svg xmlns="http://www.w3.org/2000/svg" xmlns:xlink="http://www.w3.org/1999/xlink" width="150" zoomAndPan="magnify" viewBox="0 0 112.5 112.499997" height="150" preserveAspectRatio="xMidYMid meet" version="1.0"><defs><g/><clipPath id="9bbef37095"><path d="M 58 47 L 83 47 L 83 68 L 58 68 Z M 58 47 " clip-rule="nonzero"/></clipPath><clipPath id="87ea6da5cd"><path d="M 69.730469 40.589844 L 95.339844 52.804688 L 81.839844 81.113281 L 56.230469 68.898438 Z M 69.730469 40.589844 " clip-rule="nonzero"/></clipPath><clipPath id="73cd653c20"><path d="M 69.730469 40.589844 L 95.339844 52.804688 L 81.839844 81.113281 L 56.230469 68.898438 Z M 69.730469 40.589844 " clip-rule="nonzero"/></clipPath><clipPath id="b48e733597"><path d="M 58 51 L 88 51 L 88 70 L 58 70 Z M 58 51 " clip-rule="nonzero"/></clipPath><clipPath id="dd4b292ef2"><path d="M 69.730469 40.589844 L 95.339844 52.804688 L 81.839844 81.113281 L 56.230469 68.898438 Z M 69.730469 40.589844 " clip-rule="nonzero"/></clipPath><clipPath id="8fcf8e5f88"><path d="M 69.730469 40.589844 L 95.339844 52.804688 L 81.839844 81.113281 L 56.230469 68.898438 Z M 69.730469 40.589844 " clip-rule="nonzero"/></clipPath><clipPath id="267a5d0bac"><path d="M 59 43 L 78 43 L 78 66 L 59 66 Z M 59 43 " clip-rule="nonzero"/></clipPath><clipPath id="3dd6697287"><path d="M 69.730469 40.589844 L 95.339844 52.804688 L 81.839844 81.113281 L 56.230469 68.898438 Z M 69.730469 40.589844 " clip-rule="nonzero"/></clipPath><clipPath id="61f2a04b61"><path d="M 69.730469 40.589844 L 95.339844 52.804688 L 81.839844 81.113281 L 56.230469 68.898438 Z M 69.730469 40.589844 " clip-rule="nonzero"/></clipPath><clipPath id="0ae5217b4d"><path d="M 29 47 L 54 47 L 54 68 L 29 68 Z M 29 47 " clip-rule="nonzero"/></clipPath><clipPath id="6634f0d70a"><path d="M 16.808594 52.652344 L 42.46875 40.546875 L 55.847656 68.914062 L 30.183594 81.015625 Z M 16.808594 52.652344 " clip-rule="nonzero"/></clipPath><clipPath id="4a63b8c933"><path d="M 42.320312 40.617188 L 16.660156 52.71875 L 30.035156 81.085938 L 55.699219 68.980469 Z M 42.320312 40.617188 " clip-rule="nonzero"/></clipPath><clipPath id="6184f7d91e"><path d="M 24 51 L 54 51 L 54 70 L 24 70 Z M 24 51 " clip-rule="nonzero"/></clipPath><clipPath id="5d678f7724"><path d="M 16.808594 52.652344 L 42.46875 40.546875 L 55.847656 68.914062 L 30.183594 81.015625 Z M 16.808594 52.652344 " clip-rule="nonzero"/></clipPath><clipPath id="62f58ef578"><path d="M 42.320312 40.617188 L 16.660156 52.71875 L 30.035156 81.085938 L 55.699219 68.980469 Z M 42.320312 40.617188 " clip-rule="nonzero"/></clipPath><clipPath id="faa4f72bea"><path d="M 34 43 L 53 43 L 53 66 L 34 66 Z M 34 43 " clip-rule="nonzero"/></clipPath><clipPath id="a3f5d6f910"><path d="M 16.808594 52.652344 L 42.46875 40.546875 L 55.847656 68.914062 L 30.183594 81.015625 Z M 16.808594 52.652344 " clip-rule="nonzero"/></clipPath><clipPath id="d371f4dcc8"><path d="M 42.320312 40.617188 L 16.660156 52.71875 L 30.035156 81.085938 L 55.699219 68.980469 Z M 42.320312 40.617188 " clip-rule="nonzero"/></clipPath><clipPath id="f793e0939f"><path d="M 42.507812 31.246094 L 64 31.246094 L 64 39 L 42.507812 39 Z M 42.507812 31.246094 " clip-rule="nonzero"/></clipPath><clipPath id="5720c9893d"><path d="M 47 37 L 64.910156 37 L 64.910156 63.351562 L 47 63.351562 Z M 47 37 " clip-rule="nonzero"/></clipPath></defs><g clip-path="url(#9bbef37095)"><g clip-path="url(#87ea6da5cd)"><g clip-path="url(#73cd653c20)"><path fill="#30bcff" d="M 82.390625 65.398438 L 80.859375 47.507812 C 80.859375 47.507812 79.0625 47.722656 76.9375 48.386719 L 77.089844 50.175781 C 77.664062 50.148438 78.269531 50.164062 78.902344 50.230469 L 80.226562 63.195312 C 80.226562 63.195312 65.527344 61.503906 58.738281 67.523438 C 58.738281 67.523438 67.222656 62.429688 82.390625 65.398438 " fill-opacity="1" fill-rule="nonzero"/></g></g></g><g clip-path="url(#b48e733597)"><g clip-path="url(#dd4b292ef2)"><g clip-path="url(#8fcf8e5f88)"><path fill="#00adef" d="M 85.644531 51.628906 C 85.644531 51.628906 83.847656 51.84375 81.722656 52.507812 L 81.878906 54.296875 C 82.449219 54.269531 83.054688 54.28125 83.691406 54.351562 L 85.011719 67.316406 C 85.011719 67.316406 67.597656 63.398438 58.027344 69.40625 C 58.027344 69.40625 68.582031 65.710938 87.179688 69.519531 L 85.644531 51.628906 " fill-opacity="1" fill-rule="nonzero"/></g></g></g><g clip-path="url(#267a5d0bac)"><g clip-path="url(#3dd6697287)"><g clip-path="url(#61f2a04b61)"><path fill="#0291c9" d="M 59.578125 65.300781 C 59.578125 65.300781 66.855469 59.515625 77.628906 61.519531 L 76.09375 43.628906 C 76.09375 43.628906 67.996094 44.601562 65.847656 48.75 C 65.847656 48.75 69.039062 45.804688 74.140625 46.351562 L 75.464844 59.3125 C 75.464844 59.3125 65.042969 58.945312 59.578125 65.300781 " fill-opacity="1" fill-rule="nonzero"/></g></g></g><g clip-path="url(#0ae5217b4d)"><g clip-path="url(#6634f0d70a)"><g clip-path="url(#4a63b8c933)"><path fill="#30bcff" d="M 29.550781 65.371094 L 31.164062 47.484375 C 31.164062 47.484375 32.960938 47.710938 35.082031 48.378906 L 34.921875 50.171875 C 34.347656 50.140625 33.742188 50.152344 33.105469 50.21875 L 31.726562 63.175781 C 31.726562 63.175781 46.433594 61.546875 53.195312 67.597656 C 53.195312 67.597656 44.734375 62.46875 29.550781 65.371094 " fill-opacity="1" fill-rule="nonzero"/></g></g></g><g clip-path="url(#6184f7d91e)"><g clip-path="url(#5d678f7724)"><g clip-path="url(#62f58ef578)"><path fill="#00adef" d="M 26.359375 51.585938 C 26.359375 51.585938 28.15625 51.808594 30.277344 52.480469 L 30.117188 54.269531 C 29.542969 54.238281 28.9375 54.25 28.300781 54.316406 L 26.921875 67.273438 C 26.921875 67.273438 44.351562 63.433594 53.902344 69.484375 C 53.902344 69.484375 43.363281 65.742188 24.746094 69.46875 L 26.359375 51.585938 " fill-opacity="1" fill-rule="nonzero"/></g></g></g><g clip-path="url(#faa4f72bea)"><g clip-path="url(#a3f5d6f910)"><g clip-path="url(#d371f4dcc8)"><path fill="#0291c9" d="M 52.363281 65.371094 C 52.363281 65.371094 45.113281 59.554688 34.332031 61.511719 L 35.945312 43.625 C 35.945312 43.625 44.039062 44.632812 46.167969 48.792969 C 46.167969 48.792969 42.988281 45.832031 37.886719 46.355469 L 36.507812 59.316406 C 36.507812 59.316406 46.929688 58.992188 52.363281 65.371094 " fill-opacity="1" fill-rule="nonzero"/></g></g></g><g clip-path="url(#f793e0939f)"><path fill="#00adef" d="M 63.761719 34.863281 C 63.742188 35.214844 63.496094 35.515625 63.164062 35.636719 L 56.207031 38.15625 C 56.109375 38.191406 56.007812 38.207031 55.90625 38.207031 C 55.808594 38.207031 55.707031 38.191406 55.609375 38.15625 L 49.136719 35.8125 C 48.933594 35.734375 48.832031 35.5 48.929688 35.300781 C 49.011719 35.125 49.222656 35.050781 49.40625 35.117188 L 55.863281 37.453125 C 55.890625 37.464844 55.921875 37.464844 55.953125 37.453125 L 62.933594 34.925781 C 63.003906 34.898438 63.019531 34.847656 63.019531 34.804688 C 63.019531 34.773438 63.011719 34.710938 62.9375 34.683594 L 55.953125 32.019531 C 55.925781 32.007812 55.890625 32.007812 55.863281 32.019531 L 51.03125 33.863281 C 51.203125 33.921875 51.382812 33.988281 51.5625 34.0625 C 54.125 35.09375 55.878906 34.226562 56.511719 33.808594 C 56.570312 33.769531 56.644531 33.75 56.714844 33.75 C 56.816406 33.75 56.917969 33.792969 56.992188 33.875 C 57.144531 34.046875 57.105469 34.308594 56.914062 34.433594 C 56.148438 34.9375 54.144531 35.90625 51.28125 34.753906 C 47.277344 33.140625 45.699219 34.523438 45.199219 35.214844 L 45.660156 35.492188 L 44.535156 37.304688 C 44.25 37.765625 43.652344 37.917969 43.183594 37.652344 C 42.683594 37.371094 42.519531 36.734375 42.816406 36.246094 L 43.921875 34.441406 L 44.570312 34.832031 C 45.109375 34.085938 46.59375 32.71875 49.863281 33.511719 L 55.597656 31.320312 C 55.796875 31.246094 56.019531 31.246094 56.21875 31.320312 L 63.203125 33.988281 C 63.5625 34.125 63.789062 34.472656 63.761719 34.863281 Z M 63.761719 34.863281 " fill-opacity="1" fill-rule="nonzero"/></g><g clip-path="url(#5720c9893d)"><path fill="#00adef" d="M 59.253906 37.90625 L 56.207031 39.007812 C 56.109375 39.042969 56.007812 39.0625 55.90625 39.0625 C 55.808594 39.0625 55.707031 39.042969 55.609375 39.007812 L 52.453125 37.867188 C 51.03125 42.785156 47.136719 46.757812 47.136719 46.757812 C 48.261719 48.074219 49.363281 49.757812 50.394531 51.632812 L 53.523438 58.378906 C 54.105469 59.875 55.039062 62.171875 55.472656 63.574219 L 55.375 56.417969 C 55.421875 55.359375 55.425781 50.015625 55.398438 47.671875 C 55.058594 47.5 54.824219 47.144531 54.824219 46.738281 C 54.824219 46.167969 55.28125 45.703125 55.847656 45.691406 C 56.417969 45.703125 56.875 46.167969 56.875 46.738281 C 56.875 47.144531 56.640625 47.5 56.300781 47.671875 C 56.273438 50.015625 56.277344 55.359375 56.324219 56.417969 L 56.226562 63.574219 C 56.660156 62.167969 57.59375 59.875 58.175781 58.378906 L 61.304688 51.632812 C 62.335938 49.757812 63.4375 48.074219 64.558594 46.757812 C 64.558594 46.757812 60.6875 42.804688 59.253906 37.90625 Z M 59.253906 37.90625 " fill-opacity="1" fill-rule="nonzero"/></g><g fill="#ffffff" fill-opacity="1"><g transform="translate(30.188307, 79.228757)"><g><path d="M 4.34375 -0.90625 L 4.34375 0 L 0.578125 0 L 0.578125 -4.875 L 4.25 -4.875 L 4.25 -3.96875 L 1.703125 -3.96875 L 1.703125 -2.90625 L 3.953125 -2.90625 L 3.953125 -2.03125 L 1.703125 -2.03125 L 1.703125 -0.90625 Z M 4.34375 -0.90625 "/></g></g></g><g fill="#ffffff" fill-opacity="1"><g transform="translate(35.963054, 79.228757)"><g><path d="M 0.578125 -4.875 L 2.78125 -4.875 C 3.3125 -4.875 3.78125 -4.769531 4.1875 -4.5625 C 4.59375 -4.363281 4.90625 -4.078125 5.125 -3.703125 C 5.351562 -3.335938 5.46875 -2.914062 5.46875 -2.4375 C 5.46875 -1.945312 5.351562 -1.519531 5.125 -1.15625 C 4.90625 -0.789062 4.59375 -0.503906 4.1875 -0.296875 C 3.78125 -0.0976562 3.3125 0 2.78125 0 L 0.578125 0 Z M 2.734375 -0.921875 C 3.222656 -0.921875 3.609375 -1.054688 3.890625 -1.328125 C 4.179688 -1.597656 4.328125 -1.96875 4.328125 -2.4375 C 4.328125 -2.894531 4.179688 -3.257812 3.890625 -3.53125 C 3.609375 -3.800781 3.222656 -3.9375 2.734375 -3.9375 L 1.703125 -3.9375 L 1.703125 -0.921875 Z M 2.734375 -0.921875 "/></g></g></g><g fill="#ffffff" fill-opacity="1"><g transform="translate(42.814697, 79.228757)"><g><path d="M 2.734375 0.078125 C 2.046875 0.078125 1.503906 -0.113281 1.109375 -0.5 C 0.722656 -0.882812 0.53125 -1.429688 0.53125 -2.140625 L 0.53125 -4.875 L 1.65625 -4.875 L 1.65625 -2.1875 C 1.65625 -1.3125 2.019531 -0.875 2.75 -0.875 C 3.101562 -0.875 3.367188 -0.976562 3.546875 -1.1875 C 3.734375 -1.40625 3.828125 -1.738281 3.828125 -2.1875 L 3.828125 -4.875 L 4.9375 -4.875 L 4.9375 -2.140625 C 4.9375 -1.429688 4.742188 -0.882812 4.359375 -0.5 C 3.972656 -0.113281 3.429688 0.078125 2.734375 0.078125 Z M 2.734375 0.078125 "/></g></g></g><g fill="#ffffff" fill-opacity="1"><g transform="translate(49.402322, 79.228757)"><g><path d="M 3.78125 -1.046875 L 1.515625 -1.046875 L 1.09375 0 L -0.0625 0 L 2.109375 -4.875 L 3.21875 -4.875 L 5.390625 0 L 4.21875 0 Z M 3.421875 -1.890625 L 2.65625 -3.765625 L 1.890625 -1.890625 Z M 3.421875 -1.890625 "/></g></g></g><g fill="#ffffff" fill-opacity="1"><g transform="translate(55.8371, 79.228757)"><g><path d="M 1.703125 -3.96875 L 1.703125 -2.671875 L 3.953125 -2.671875 L 3.953125 -1.765625 L 1.703125 -1.765625 L 1.703125 0 L 0.578125 0 L 0.578125 -4.875 L 4.25 -4.875 L 4.25 -3.96875 Z M 1.703125 -3.96875 "/></g></g></g><g fill="#ffffff" fill-opacity="1"><g transform="translate(61.38952, 79.228757)"><g><path d="M 3.671875 0 L 2.734375 -1.359375 L 1.703125 -1.359375 L 1.703125 0 L 0.578125 0 L 0.578125 -4.875 L 2.6875 -4.875 C 3.113281 -4.875 3.484375 -4.800781 3.796875 -4.65625 C 4.117188 -4.507812 4.363281 -4.300781 4.53125 -4.03125 C 4.707031 -3.769531 4.796875 -3.457031 4.796875 -3.09375 C 4.796875 -2.738281 4.707031 -2.425781 4.53125 -2.15625 C 4.363281 -1.894531 4.117188 -1.695312 3.796875 -1.5625 L 4.890625 0 Z M 3.65625 -3.09375 C 3.65625 -3.375 3.566406 -3.585938 3.390625 -3.734375 C 3.210938 -3.878906 2.957031 -3.953125 2.625 -3.953125 L 1.703125 -3.953125 L 1.703125 -2.25 L 2.625 -2.25 C 2.957031 -2.25 3.210938 -2.320312 3.390625 -2.46875 C 3.566406 -2.625 3.65625 -2.832031 3.65625 -3.09375 Z M 3.65625 -3.09375 "/></g></g></g><g fill="#ffffff" fill-opacity="1"><g transform="translate(67.608919, 79.228757)"><g><path d="M 0.578125 -4.875 L 1.703125 -4.875 L 1.703125 0 L 0.578125 0 Z M 0.578125 -4.875 "/></g></g></g><g fill="#ffffff" fill-opacity="1"><g transform="translate(71.00061, 79.228757)"><g><path d="M 2.90625 0.078125 C 2.40625 0.078125 1.953125 -0.0234375 1.546875 -0.234375 C 1.148438 -0.453125 0.835938 -0.75 0.609375 -1.125 C 0.378906 -1.507812 0.265625 -1.945312 0.265625 -2.4375 C 0.265625 -2.914062 0.378906 -3.34375 0.609375 -3.71875 C 0.835938 -4.101562 1.148438 -4.40625 1.546875 -4.625 C 1.953125 -4.84375 2.40625 -4.953125 2.90625 -4.953125 C 3.332031 -4.953125 3.710938 -4.875 4.046875 -4.71875 C 4.390625 -4.570312 4.679688 -4.363281 4.921875 -4.09375 L 4.1875 -3.421875 C 3.863281 -3.796875 3.457031 -3.984375 2.96875 -3.984375 C 2.664062 -3.984375 2.394531 -3.914062 2.15625 -3.78125 C 1.925781 -3.65625 1.742188 -3.472656 1.609375 -3.234375 C 1.472656 -3.003906 1.40625 -2.738281 1.40625 -2.4375 C 1.40625 -2.132812 1.472656 -1.863281 1.609375 -1.625 C 1.742188 -1.382812 1.925781 -1.195312 2.15625 -1.0625 C 2.394531 -0.9375 2.664062 -0.875 2.96875 -0.875 C 3.457031 -0.875 3.863281 -1.066406 4.1875 -1.453125 L 4.921875 -0.78125 C 4.679688 -0.5 4.390625 -0.285156 4.046875 -0.140625 C 3.710938 0.00390625 3.332031 0.078125 2.90625 0.078125 Z M 2.90625 0.078125 "/></g></g></g><g fill="#ffffff" fill-opacity="1"><g transform="translate(77.206114, 79.228757)"><g><path d="M 3.78125 -1.046875 L 1.515625 -1.046875 L 1.09375 0 L -0.0625 0 L 2.109375 -4.875 L 3.21875 -4.875 L 5.390625 0 L 4.21875 0 Z M 3.421875 -1.890625 L 2.65625 -3.765625 L 1.890625 -1.890625 Z M 3.421875 -1.890625 "/></g></g></g></svg>