<svg xmlns="http://www.w3.org/2000/svg" xmlns:xlink="http://www.w3.org/1999/xlink" width="100" zoomAndPan="magnify" viewBox="0 0 75 74.999997" height="100" preserveAspectRatio="xMidYMid meet" version="1.0"><defs><g/><clipPath id="b016e13df0"><path d="M 40 26 L 60 26 L 60 44 L 40 44 Z M 40 26 " clip-rule="nonzero"/></clipPath><clipPath id="b2a71821c8"><path d="M 49.339844 21.113281 L 70.324219 31.125 L 59.347656 54.140625 L 38.363281 44.132812 Z M 49.339844 21.113281 " clip-rule="nonzero"/></clipPath><clipPath id="0fe55aafa1"><path d="M 49.339844 21.113281 L 70.324219 31.125 L 59.347656 54.140625 L 38.363281 44.132812 Z M 49.339844 21.113281 " clip-rule="nonzero"/></clipPath><clipPath id="e5728e2aed"><path d="M 39 30 L 64 30 L 64 45 L 39 45 Z M 39 30 " clip-rule="nonzero"/></clipPath><clipPath id="7e25bc1c5f"><path d="M 49.339844 21.113281 L 70.324219 31.125 L 59.347656 54.140625 L 38.363281 44.132812 Z M 49.339844 21.113281 " clip-rule="nonzero"/></clipPath><clipPath id="8fd032a66b"><path d="M 49.339844 21.113281 L 70.324219 31.125 L 59.347656 54.140625 L 38.363281 44.132812 Z M 49.339844 21.113281 " clip-rule="nonzero"/></clipPath><clipPath id="bc491b7e5b"><path d="M 41 23 L 56 23 L 56 42 L 41 42 Z M 41 23 " clip-rule="nonzero"/></clipPath><clipPath id="38a9ab32b6"><path d="M 49.339844 21.113281 L 70.324219 31.125 L 59.347656 54.140625 L 38.363281 44.132812 Z M 49.339844 21.113281 " clip-rule="nonzero"/></clipPath><clipPath id="d17f3d2323"><path d="M 49.339844 21.113281 L 70.324219 31.125 L 59.347656 54.140625 L 38.363281 44.132812 Z M 49.339844 21.113281 " clip-rule="nonzero"/></clipPath><clipPath id="4136a7a9c5"><path d="M 16 26 L 36 26 L 36 44 L 16 44 Z M 16 26 " clip-rule="nonzero"/></clipPath><clipPath id="ec9e27520e"><path d="M 5.90625 31.007812 L 26.9375 21.09375 L 37.8125 44.15625 L 16.785156 54.074219 Z M 5.90625 31.007812 " clip-rule="nonzero"/></clipPath><clipPath id="9abe4d0740"><path d="M 26.839844 21.136719 L 5.8125 31.054688 L 16.691406 54.117188 L 37.71875 44.199219 Z M 26.839844 21.136719 " clip-rule="nonzero"/></clipPath><clipPath id="e29e2a95cd"><path d="M 12 30 L 37 30 L 37 45 L 12 45 Z M 12 30 " clip-rule="nonzero"/></clipPath><clipPath id="76826c8f27"><path d="M 5.90625 31.007812 L 26.9375 21.09375 L 37.8125 44.15625 L 16.785156 54.074219 Z M 5.90625 31.007812 " clip-rule="nonzero"/></clipPath><clipPath id="f5a9efd17c"><path d="M 26.839844 21.136719 L 5.8125 31.054688 L 16.691406 54.117188 L 37.71875 44.199219 Z M 26.839844 21.136719 " clip-rule="nonzero"/></clipPath><clipPath id="e7b53446a1"><path d="M 20 23 L 36 23 L 36 42 L 20 42 Z M 20 23 " clip-rule="nonzero"/></clipPath><clipPath id="76ea824ba8"><path d="M 5.90625 31.007812 L 26.9375 21.09375 L 37.8125 44.15625 L 16.785156 54.074219 Z M 5.90625 31.007812 " clip-rule="nonzero"/></clipPath><clipPath id="dd4abcdf52"><path d="M 26.839844 21.136719 L 5.8125 31.054688 L 16.691406 54.117188 L 37.71875 44.199219 Z M 26.839844 21.136719 " clip-rule="nonzero"/></clipPath><clipPath id="9702de10ba"><path d="M 27 13.441406 L 45 13.441406 L 45 20 L 27 20 Z M 27 13.441406 " clip-rule="nonzero"/></clipPath><clipPath id="d23e5a4e6f"><path d="M 30 18 L 45 18 L 45 39.691406 L 30 39.691406 Z M 30 18 " clip-rule="nonzero"/></clipPath></defs><g clip-path="url(#b016e13df0)"><g clip-path="url(#b2a71821c8)"><g clip-path="url(#0fe55aafa1)"><path fill="#30bcff" d="M 59.730469 41.472656 L 58.46875 26.789062 C 58.46875 26.789062 56.996094 26.96875 55.25 27.511719 L 55.378906 28.980469 C 55.847656 28.957031 56.34375 28.96875 56.867188 29.023438 L 57.953125 39.664062 C 57.953125 39.664062 45.890625 38.273438 40.320312 43.214844 C 40.320312 43.214844 47.28125 39.035156 59.730469 41.472656 " fill-opacity="1" fill-rule="nonzero"/></g></g></g><g clip-path="url(#e5728e2aed)"><g clip-path="url(#7e25bc1c5f)"><g clip-path="url(#8fd032a66b)"><path fill="#00adef" d="M 62.398438 30.171875 C 62.398438 30.171875 60.921875 30.347656 59.179688 30.890625 L 59.304688 32.359375 C 59.777344 32.339844 60.273438 32.347656 60.792969 32.40625 L 61.878906 43.042969 C 61.878906 43.042969 47.589844 39.828125 39.734375 44.761719 C 39.734375 44.761719 48.394531 41.726562 63.65625 44.851562 L 62.398438 30.171875 " fill-opacity="1" fill-rule="nonzero"/></g></g></g><g clip-path="url(#bc491b7e5b)"><g clip-path="url(#38a9ab32b6)"><g clip-path="url(#d17f3d2323)"><path fill="#0291c9" d="M 41.007812 41.390625 C 41.007812 41.390625 46.980469 36.644531 55.820312 38.289062 L 54.5625 23.605469 C 54.5625 23.605469 47.914062 24.402344 46.152344 27.808594 C 46.152344 27.808594 48.769531 25.390625 52.957031 25.839844 L 54.042969 36.480469 C 54.042969 36.480469 45.492188 36.175781 41.007812 41.390625 " fill-opacity="1" fill-rule="nonzero"/></g></g></g><g clip-path="url(#4136a7a9c5)"><g clip-path="url(#ec9e27520e)"><g clip-path="url(#9abe4d0740)"><path fill="#30bcff" d="M 16.363281 41.449219 L 17.6875 26.773438 C 17.6875 26.773438 19.160156 26.957031 20.902344 27.507812 L 20.769531 28.976562 C 20.300781 28.949219 19.804688 28.960938 19.28125 29.011719 L 18.148438 39.648438 C 18.148438 39.648438 30.214844 38.3125 35.765625 43.273438 C 35.765625 43.273438 28.820312 39.066406 16.363281 41.449219 " fill-opacity="1" fill-rule="nonzero"/></g></g></g><g clip-path="url(#e29e2a95cd)"><g clip-path="url(#76826c8f27)"><g clip-path="url(#f5a9efd17c)"><path fill="#00adef" d="M 13.746094 30.136719 C 13.746094 30.136719 15.21875 30.320312 16.960938 30.871094 L 16.828125 32.339844 C 16.355469 32.316406 15.859375 32.324219 15.339844 32.378906 L 14.207031 43.011719 C 14.207031 43.011719 28.511719 39.859375 36.34375 44.824219 C 36.34375 44.824219 27.699219 41.753906 12.421875 44.8125 L 13.746094 30.136719 " fill-opacity="1" fill-rule="nonzero"/></g></g></g><g clip-path="url(#e7b53446a1)"><g clip-path="url(#76ea824ba8)"><g clip-path="url(#dd4abcdf52)"><path fill="#0291c9" d="M 35.085938 41.449219 C 35.085938 41.449219 29.136719 36.675781 20.285156 38.28125 L 21.609375 23.605469 C 21.609375 23.605469 28.253906 24.433594 30 27.84375 C 30 27.84375 27.390625 25.414062 23.203125 25.847656 L 22.070312 36.480469 C 22.070312 36.480469 30.625 36.214844 35.085938 41.449219 " fill-opacity="1" fill-rule="nonzero"/></g></g></g><g clip-path="url(#9702de10ba)"><path fill="#ffffff" d="M 44.445312 16.414062 C 44.425781 16.703125 44.222656 16.949219 43.949219 17.046875 L 38.242188 19.113281 C 38.164062 19.144531 38.082031 19.15625 37.996094 19.15625 C 37.914062 19.15625 37.832031 19.144531 37.753906 19.113281 L 32.441406 17.191406 C 32.273438 17.128906 32.191406 16.9375 32.269531 16.769531 C 32.335938 16.625 32.511719 16.566406 32.660156 16.621094 L 37.960938 18.539062 C 37.984375 18.546875 38.011719 18.546875 38.03125 18.539062 L 43.765625 16.464844 C 43.820312 16.441406 43.832031 16.398438 43.832031 16.367188 C 43.835938 16.339844 43.824219 16.289062 43.765625 16.265625 L 38.035156 14.078125 C 38.011719 14.070312 37.984375 14.070312 37.960938 14.078125 L 33.996094 15.589844 C 34.136719 15.640625 34.28125 15.695312 34.429688 15.757812 C 36.53125 16.601562 37.972656 15.890625 38.492188 15.550781 C 38.542969 15.515625 38.601562 15.5 38.660156 15.5 C 38.742188 15.5 38.828125 15.535156 38.886719 15.601562 C 39.011719 15.742188 38.980469 15.957031 38.824219 16.0625 C 38.195312 16.472656 36.546875 17.269531 34.203125 16.324219 C 30.914062 15 29.621094 16.136719 29.210938 16.699219 L 29.585938 16.929688 L 28.664062 18.417969 C 28.429688 18.792969 27.941406 18.917969 27.554688 18.703125 C 27.144531 18.472656 27.007812 17.949219 27.253906 17.546875 L 28.164062 16.066406 L 28.691406 16.386719 C 29.136719 15.777344 30.351562 14.652344 33.035156 15.304688 L 37.742188 13.507812 C 37.90625 13.445312 38.085938 13.445312 38.253906 13.507812 L 43.984375 15.695312 C 44.28125 15.808594 44.464844 16.09375 44.445312 16.414062 Z M 44.445312 16.414062 " fill-opacity="1" fill-rule="nonzero"/></g><g clip-path="url(#d23e5a4e6f)"><path fill="#ffffff" d="M 40.746094 18.910156 L 38.242188 19.816406 C 38.164062 19.84375 38.078125 19.859375 37.996094 19.859375 C 37.914062 19.859375 37.832031 19.84375 37.753906 19.816406 L 35.164062 18.878906 C 33.996094 22.914062 30.800781 26.171875 30.800781 26.171875 C 31.722656 27.253906 32.625 28.636719 33.472656 30.175781 L 36.039062 35.710938 C 36.519531 36.9375 37.285156 38.824219 37.640625 39.976562 L 37.558594 34.101562 C 37.597656 33.234375 37.601562 28.847656 37.578125 26.925781 C 37.296875 26.78125 37.105469 26.492188 37.105469 26.15625 C 37.105469 25.6875 37.480469 25.308594 37.949219 25.300781 C 38.414062 25.308594 38.789062 25.6875 38.789062 26.15625 C 38.789062 26.492188 38.597656 26.78125 38.320312 26.925781 C 38.296875 28.847656 38.300781 33.230469 38.339844 34.101562 L 38.257812 39.976562 C 38.613281 38.824219 39.378906 36.9375 39.859375 35.710938 L 42.425781 30.175781 C 43.269531 28.636719 44.175781 27.253906 45.097656 26.171875 C 45.097656 26.171875 41.917969 22.929688 40.746094 18.910156 Z M 40.746094 18.910156 " fill-opacity="1" fill-rule="nonzero"/></g><g fill="#ffffff" fill-opacity="1"><g transform="translate(11.377004, 54.327916)"><g><path d="M 4.375 -0.90625 L 4.375 0 L 0.578125 0 L 0.578125 -4.90625 L 4.28125 -4.90625 L 4.28125 -3.984375 L 1.703125 -3.984375 L 1.703125 -2.921875 L 3.984375 -2.921875 L 3.984375 -2.046875 L 1.703125 -2.046875 L 1.703125 -0.90625 Z M 4.375 -0.90625 "/></g></g></g><g fill="#ffffff" fill-opacity="1"><g transform="translate(17.194066, 54.327916)"><g><path d="M 0.578125 -4.90625 L 2.8125 -4.90625 C 3.34375 -4.90625 3.8125 -4.800781 4.21875 -4.59375 C 4.625 -4.394531 4.941406 -4.109375 5.171875 -3.734375 C 5.398438 -3.367188 5.515625 -2.941406 5.515625 -2.453125 C 5.515625 -1.960938 5.398438 -1.53125 5.171875 -1.15625 C 4.941406 -0.789062 4.625 -0.503906 4.21875 -0.296875 C 3.8125 -0.0976562 3.34375 0 2.8125 0 L 0.578125 0 Z M 2.75 -0.9375 C 3.238281 -0.9375 3.628906 -1.070312 3.921875 -1.34375 C 4.210938 -1.613281 4.359375 -1.984375 4.359375 -2.453125 C 4.359375 -2.921875 4.210938 -3.289062 3.921875 -3.5625 C 3.628906 -3.832031 3.238281 -3.96875 2.75 -3.96875 L 1.71875 -3.96875 L 1.71875 -0.9375 Z M 2.75 -0.9375 "/></g></g></g><g fill="#ffffff" fill-opacity="1"><g transform="translate(24.096133, 54.327916)"><g><path d="M 2.765625 0.078125 C 2.054688 0.078125 1.503906 -0.113281 1.109375 -0.5 C 0.722656 -0.882812 0.53125 -1.4375 0.53125 -2.15625 L 0.53125 -4.90625 L 1.671875 -4.90625 L 1.671875 -2.203125 C 1.671875 -1.316406 2.035156 -0.875 2.765625 -0.875 C 3.117188 -0.875 3.390625 -0.976562 3.578125 -1.1875 C 3.765625 -1.40625 3.859375 -1.742188 3.859375 -2.203125 L 3.859375 -4.90625 L 4.984375 -4.90625 L 4.984375 -2.15625 C 4.984375 -1.4375 4.785156 -0.882812 4.390625 -0.5 C 4.003906 -0.113281 3.460938 0.078125 2.765625 0.078125 Z M 2.765625 0.078125 "/></g></g></g><g fill="#ffffff" fill-opacity="1"><g transform="translate(30.732204, 54.327916)"><g><path d="M 3.8125 -1.046875 L 1.53125 -1.046875 L 1.09375 0 L -0.0625 0 L 2.125 -4.90625 L 3.234375 -4.90625 L 5.4375 0 L 4.234375 0 Z M 3.453125 -1.90625 L 2.671875 -3.78125 L 1.890625 -1.90625 Z M 3.453125 -1.90625 "/></g></g></g><g fill="#ffffff" fill-opacity="1"><g transform="translate(37.214267, 54.327916)"><g><path d="M 1.71875 -3.984375 L 1.71875 -2.6875 L 3.984375 -2.6875 L 3.984375 -1.78125 L 1.71875 -1.78125 L 1.71875 0 L 0.578125 0 L 0.578125 -4.90625 L 4.28125 -4.90625 L 4.28125 -3.984375 Z M 1.71875 -3.984375 "/></g></g></g><g fill="#ffffff" fill-opacity="1"><g transform="translate(42.807326, 54.327916)"><g><path d="M 3.703125 0 L 2.765625 -1.359375 L 1.71875 -1.359375 L 1.71875 0 L 0.578125 0 L 0.578125 -4.90625 L 2.703125 -4.90625 C 3.140625 -4.90625 3.515625 -4.832031 3.828125 -4.6875 C 4.148438 -4.539062 4.394531 -4.332031 4.5625 -4.0625 C 4.738281 -3.800781 4.828125 -3.488281 4.828125 -3.125 C 4.828125 -2.757812 4.738281 -2.441406 4.5625 -2.171875 C 4.394531 -1.910156 4.148438 -1.710938 3.828125 -1.578125 L 4.921875 0 Z M 3.6875 -3.125 C 3.6875 -3.394531 3.597656 -3.601562 3.421875 -3.75 C 3.242188 -3.894531 2.984375 -3.96875 2.640625 -3.96875 L 1.71875 -3.96875 L 1.71875 -2.265625 L 2.640625 -2.265625 C 2.984375 -2.265625 3.242188 -2.335938 3.421875 -2.484375 C 3.597656 -2.640625 3.6875 -2.851562 3.6875 -3.125 Z M 3.6875 -3.125 "/></g></g></g><g fill="#ffffff" fill-opacity="1"><g transform="translate(49.072392, 54.327916)"><g><path d="M 0.578125 -4.90625 L 1.71875 -4.90625 L 1.71875 0 L 0.578125 0 Z M 0.578125 -4.90625 "/></g></g></g><g fill="#ffffff" fill-opacity="1"><g transform="translate(52.488426, 54.327916)"><g><path d="M 2.921875 0.078125 C 2.421875 0.078125 1.96875 -0.0234375 1.5625 -0.234375 C 1.164062 -0.453125 0.847656 -0.753906 0.609375 -1.140625 C 0.378906 -1.523438 0.265625 -1.960938 0.265625 -2.453125 C 0.265625 -2.929688 0.378906 -3.363281 0.609375 -3.75 C 0.847656 -4.132812 1.164062 -4.4375 1.5625 -4.65625 C 1.96875 -4.875 2.425781 -4.984375 2.9375 -4.984375 C 3.351562 -4.984375 3.734375 -4.90625 4.078125 -4.75 C 4.421875 -4.601562 4.710938 -4.390625 4.953125 -4.109375 L 4.21875 -3.4375 C 3.882812 -3.820312 3.472656 -4.015625 2.984375 -4.015625 C 2.679688 -4.015625 2.410156 -3.945312 2.171875 -3.8125 C 1.929688 -3.6875 1.742188 -3.503906 1.609375 -3.265625 C 1.484375 -3.023438 1.421875 -2.753906 1.421875 -2.453125 C 1.421875 -2.148438 1.484375 -1.878906 1.609375 -1.640625 C 1.742188 -1.398438 1.929688 -1.210938 2.171875 -1.078125 C 2.410156 -0.941406 2.679688 -0.875 2.984375 -0.875 C 3.472656 -0.875 3.882812 -1.070312 4.21875 -1.46875 L 4.953125 -0.796875 C 4.710938 -0.503906 4.421875 -0.285156 4.078125 -0.140625 C 3.734375 0.00390625 3.347656 0.078125 2.921875 0.078125 Z M 2.921875 0.078125 "/></g></g></g><g fill="#ffffff" fill-opacity="1"><g transform="translate(58.739491, 54.327916)"><g><path d="M 3.8125 -1.046875 L 1.53125 -1.046875 L 1.09375 0 L -0.0625 0 L 2.125 -4.90625 L 3.234375 -4.90625 L 5.4375 0 L 4.234375 0 Z M 3.453125 -1.90625 L 2.671875 -3.78125 L 1.890625 -1.90625 Z M 3.453125 -1.90625 "/></g></g></g></svg>